<mxfile host="app.diagrams.net" modified="2024-03-23T12:17:13.402Z" agent="Mozilla/5.0 (Windows NT 10.0; Win64; x64) AppleWebKit/537.36 (KHTML, like Gecko) Chrome/123.0.0.0 Safari/537.36" etag="Tkwzl-_55INbLirBRTRs" version="24.0.7" type="device">
  <diagram name="Page-1" id="9361dd3d-8414-5efd-6122-117bd74ce7a7">
    <mxGraphModel dx="1434" dy="1180" grid="1" gridSize="10" guides="1" tooltips="1" connect="1" arrows="1" fold="1" page="0" pageScale="1.5" pageWidth="826" pageHeight="1169" background="none" math="0" shadow="0">
      <root>
        <mxCell id="0" />
        <mxCell id="1" parent="0" />
        <mxCell id="SzPEY5MTMF_OYSWRjiUZ-95" value="&lt;b&gt;&amp;lt;&amp;lt;system&amp;gt;&amp;gt;&lt;/b&gt;&lt;div&gt;&lt;b&gt;Meteostation Server&lt;/b&gt;&lt;/div&gt;" style="rounded=0;whiteSpace=wrap;html=1;fillColor=#dae8fc;strokeColor=#6c8ebf;verticalAlign=top;" vertex="1" parent="1">
          <mxGeometry x="60" y="-70" width="1020" height="760" as="geometry" />
        </mxCell>
        <mxCell id="SzPEY5MTMF_OYSWRjiUZ-94" value="" style="group" vertex="1" connectable="0" parent="1">
          <mxGeometry x="990" y="-50" width="70" height="80" as="geometry" />
        </mxCell>
        <mxCell id="SzPEY5MTMF_OYSWRjiUZ-89" value="" style="rounded=0;whiteSpace=wrap;html=1;fillColor=#dae8fc;strokeColor=#6c8ebf;" vertex="1" parent="SzPEY5MTMF_OYSWRjiUZ-94">
          <mxGeometry x="20" width="50" height="80" as="geometry" />
        </mxCell>
        <mxCell id="SzPEY5MTMF_OYSWRjiUZ-90" value="" style="rounded=1;whiteSpace=wrap;html=1;fillColor=#dae8fc;strokeColor=#6c8ebf;" vertex="1" parent="SzPEY5MTMF_OYSWRjiUZ-94">
          <mxGeometry y="12" width="40" height="20" as="geometry" />
        </mxCell>
        <mxCell id="SzPEY5MTMF_OYSWRjiUZ-91" value="" style="rounded=1;whiteSpace=wrap;html=1;fillColor=#dae8fc;strokeColor=#6c8ebf;" vertex="1" parent="SzPEY5MTMF_OYSWRjiUZ-94">
          <mxGeometry y="48" width="40" height="20" as="geometry" />
        </mxCell>
        <mxCell id="SzPEY5MTMF_OYSWRjiUZ-107" value="" style="group" vertex="1" connectable="0" parent="1">
          <mxGeometry x="840" y="150" width="220" height="120" as="geometry" />
        </mxCell>
        <mxCell id="SzPEY5MTMF_OYSWRjiUZ-102" value="&amp;lt;&amp;lt;componet&amp;gt;&amp;gt;&lt;div&gt;DataBase&lt;/div&gt;" style="rounded=0;whiteSpace=wrap;html=1;fillColor=#dae8fc;strokeColor=#6c8ebf;verticalAlign=top;fontStyle=1" vertex="1" parent="SzPEY5MTMF_OYSWRjiUZ-107">
          <mxGeometry width="220" height="120" as="geometry" />
        </mxCell>
        <mxCell id="SzPEY5MTMF_OYSWRjiUZ-103" value="" style="group" vertex="1" connectable="0" parent="SzPEY5MTMF_OYSWRjiUZ-107">
          <mxGeometry x="170" y="10" width="40" height="40" as="geometry" />
        </mxCell>
        <mxCell id="SzPEY5MTMF_OYSWRjiUZ-104" value="" style="rounded=0;whiteSpace=wrap;html=1;fillColor=#dae8fc;strokeColor=#6c8ebf;" vertex="1" parent="SzPEY5MTMF_OYSWRjiUZ-103">
          <mxGeometry x="11.428571428571427" width="28.57142857142857" height="40" as="geometry" />
        </mxCell>
        <mxCell id="SzPEY5MTMF_OYSWRjiUZ-105" value="" style="rounded=1;whiteSpace=wrap;html=1;fillColor=#dae8fc;strokeColor=#6c8ebf;" vertex="1" parent="SzPEY5MTMF_OYSWRjiUZ-103">
          <mxGeometry y="6" width="22.857142857142854" height="10" as="geometry" />
        </mxCell>
        <mxCell id="SzPEY5MTMF_OYSWRjiUZ-106" value="" style="rounded=1;whiteSpace=wrap;html=1;fillColor=#dae8fc;strokeColor=#6c8ebf;" vertex="1" parent="SzPEY5MTMF_OYSWRjiUZ-103">
          <mxGeometry y="24" width="22.857142857142854" height="10" as="geometry" />
        </mxCell>
        <mxCell id="SzPEY5MTMF_OYSWRjiUZ-156" value="" style="rounded=0;whiteSpace=wrap;html=1;fillColor=#dae8fc;strokeColor=#6c8ebf;" vertex="1" parent="SzPEY5MTMF_OYSWRjiUZ-107">
          <mxGeometry x="-15" y="48" width="30" height="25" as="geometry" />
        </mxCell>
        <mxCell id="SzPEY5MTMF_OYSWRjiUZ-115" value="&amp;lt;&amp;lt;component&amp;gt;&amp;gt;&lt;div&gt;C# ASP .NET Core MVC app&lt;/div&gt;" style="rounded=0;whiteSpace=wrap;html=1;fillColor=#dae8fc;strokeColor=#6c8ebf;verticalAlign=top;fontStyle=1" vertex="1" parent="1">
          <mxGeometry x="90" y="10" width="630" height="640" as="geometry" />
        </mxCell>
        <mxCell id="SzPEY5MTMF_OYSWRjiUZ-117" value="" style="group" vertex="1" connectable="0" parent="1">
          <mxGeometry x="650" y="20" width="50" height="50" as="geometry" />
        </mxCell>
        <mxCell id="SzPEY5MTMF_OYSWRjiUZ-118" value="" style="rounded=0;whiteSpace=wrap;html=1;fillColor=#dae8fc;strokeColor=#6c8ebf;" vertex="1" parent="SzPEY5MTMF_OYSWRjiUZ-117">
          <mxGeometry x="14.285714285714286" width="35.714285714285715" height="50" as="geometry" />
        </mxCell>
        <mxCell id="SzPEY5MTMF_OYSWRjiUZ-119" value="" style="rounded=1;whiteSpace=wrap;html=1;fillColor=#dae8fc;strokeColor=#6c8ebf;" vertex="1" parent="SzPEY5MTMF_OYSWRjiUZ-117">
          <mxGeometry y="7.5" width="28.571428571428573" height="12.5" as="geometry" />
        </mxCell>
        <mxCell id="SzPEY5MTMF_OYSWRjiUZ-120" value="" style="rounded=1;whiteSpace=wrap;html=1;fillColor=#dae8fc;strokeColor=#6c8ebf;" vertex="1" parent="SzPEY5MTMF_OYSWRjiUZ-117">
          <mxGeometry y="30" width="28.571428571428573" height="12.5" as="geometry" />
        </mxCell>
        <mxCell id="SzPEY5MTMF_OYSWRjiUZ-121" value="&amp;lt;&amp;lt;component&amp;gt;&amp;gt;&lt;div&gt;Models&lt;/div&gt;" style="rounded=0;whiteSpace=wrap;html=1;fillColor=#dae8fc;strokeColor=#6c8ebf;verticalAlign=top;fontStyle=1" vertex="1" parent="1">
          <mxGeometry x="420" y="335" width="187.5" height="120" as="geometry" />
        </mxCell>
        <mxCell id="SzPEY5MTMF_OYSWRjiUZ-122" value="&amp;lt;&amp;lt;component&amp;gt;&amp;gt;&lt;div&gt;Views&lt;/div&gt;" style="rounded=0;whiteSpace=wrap;html=1;fillColor=#dae8fc;strokeColor=#6c8ebf;verticalAlign=top;fontStyle=1" vertex="1" parent="1">
          <mxGeometry x="117.5" y="285" width="190" height="120" as="geometry" />
        </mxCell>
        <mxCell id="SzPEY5MTMF_OYSWRjiUZ-123" value="&amp;lt;&amp;lt;component&amp;gt;&amp;gt;&lt;div&gt;Controllers&lt;/div&gt;" style="rounded=0;whiteSpace=wrap;html=1;fillColor=#dae8fc;strokeColor=#6c8ebf;verticalAlign=top;fontStyle=1" vertex="1" parent="1">
          <mxGeometry x="118.75" y="480" width="187.5" height="120" as="geometry" />
        </mxCell>
        <mxCell id="SzPEY5MTMF_OYSWRjiUZ-124" value="&amp;lt;&amp;lt;component&amp;gt;&amp;gt;&lt;div&gt;Infrastructure&lt;/div&gt;" style="rounded=0;whiteSpace=wrap;html=1;fillColor=#dae8fc;strokeColor=#6c8ebf;verticalAlign=top;fontStyle=1" vertex="1" parent="1">
          <mxGeometry x="420" y="90" width="182.5" height="120" as="geometry" />
        </mxCell>
        <mxCell id="SzPEY5MTMF_OYSWRjiUZ-125" value="&amp;lt;&amp;lt;component&amp;gt;&amp;gt;&lt;div&gt;wwwroot&lt;/div&gt;" style="rounded=0;whiteSpace=wrap;html=1;fillColor=#dae8fc;strokeColor=#6c8ebf;verticalAlign=top;fontStyle=1" vertex="1" parent="1">
          <mxGeometry x="121.75" y="90" width="182.5" height="120" as="geometry" />
        </mxCell>
        <mxCell id="SzPEY5MTMF_OYSWRjiUZ-135" value="" style="group" vertex="1" connectable="0" parent="1">
          <mxGeometry x="261.75" y="100" width="40" height="40" as="geometry" />
        </mxCell>
        <mxCell id="SzPEY5MTMF_OYSWRjiUZ-136" value="" style="rounded=0;whiteSpace=wrap;html=1;fillColor=#dae8fc;strokeColor=#6c8ebf;" vertex="1" parent="SzPEY5MTMF_OYSWRjiUZ-135">
          <mxGeometry x="11.432" width="28.568" height="40" as="geometry" />
        </mxCell>
        <mxCell id="SzPEY5MTMF_OYSWRjiUZ-137" value="" style="rounded=1;whiteSpace=wrap;html=1;fillColor=#dae8fc;strokeColor=#6c8ebf;" vertex="1" parent="SzPEY5MTMF_OYSWRjiUZ-135">
          <mxGeometry y="6" width="22.85714285714286" height="10" as="geometry" />
        </mxCell>
        <mxCell id="SzPEY5MTMF_OYSWRjiUZ-138" value="" style="rounded=1;whiteSpace=wrap;html=1;fillColor=#dae8fc;strokeColor=#6c8ebf;" vertex="1" parent="SzPEY5MTMF_OYSWRjiUZ-135">
          <mxGeometry y="24" width="22.85714285714286" height="10" as="geometry" />
        </mxCell>
        <mxCell id="SzPEY5MTMF_OYSWRjiUZ-139" value="" style="group" vertex="1" connectable="0" parent="1">
          <mxGeometry x="560.5" y="95" width="40" height="40" as="geometry" />
        </mxCell>
        <mxCell id="SzPEY5MTMF_OYSWRjiUZ-140" value="" style="rounded=0;whiteSpace=wrap;html=1;fillColor=#dae8fc;strokeColor=#6c8ebf;" vertex="1" parent="SzPEY5MTMF_OYSWRjiUZ-139">
          <mxGeometry x="11.432" width="28.568" height="40" as="geometry" />
        </mxCell>
        <mxCell id="SzPEY5MTMF_OYSWRjiUZ-141" value="" style="rounded=1;whiteSpace=wrap;html=1;fillColor=#dae8fc;strokeColor=#6c8ebf;" vertex="1" parent="SzPEY5MTMF_OYSWRjiUZ-139">
          <mxGeometry y="6" width="22.85714285714286" height="10" as="geometry" />
        </mxCell>
        <mxCell id="SzPEY5MTMF_OYSWRjiUZ-142" value="" style="rounded=1;whiteSpace=wrap;html=1;fillColor=#dae8fc;strokeColor=#6c8ebf;" vertex="1" parent="SzPEY5MTMF_OYSWRjiUZ-139">
          <mxGeometry y="24" width="22.85714285714286" height="10" as="geometry" />
        </mxCell>
        <mxCell id="SzPEY5MTMF_OYSWRjiUZ-144" value="" style="group" vertex="1" connectable="0" parent="1">
          <mxGeometry x="262.5" y="295" width="40" height="40" as="geometry" />
        </mxCell>
        <mxCell id="SzPEY5MTMF_OYSWRjiUZ-145" value="" style="rounded=0;whiteSpace=wrap;html=1;fillColor=#dae8fc;strokeColor=#6c8ebf;" vertex="1" parent="SzPEY5MTMF_OYSWRjiUZ-144">
          <mxGeometry x="11.432" width="28.568" height="40" as="geometry" />
        </mxCell>
        <mxCell id="SzPEY5MTMF_OYSWRjiUZ-146" value="" style="rounded=1;whiteSpace=wrap;html=1;fillColor=#dae8fc;strokeColor=#6c8ebf;" vertex="1" parent="SzPEY5MTMF_OYSWRjiUZ-144">
          <mxGeometry y="6" width="22.85714285714286" height="10" as="geometry" />
        </mxCell>
        <mxCell id="SzPEY5MTMF_OYSWRjiUZ-147" value="" style="rounded=1;whiteSpace=wrap;html=1;fillColor=#dae8fc;strokeColor=#6c8ebf;" vertex="1" parent="SzPEY5MTMF_OYSWRjiUZ-144">
          <mxGeometry y="24" width="22.85714285714286" height="10" as="geometry" />
        </mxCell>
        <mxCell id="SzPEY5MTMF_OYSWRjiUZ-148" value="" style="group" vertex="1" connectable="0" parent="1">
          <mxGeometry x="565" y="343" width="40" height="40" as="geometry" />
        </mxCell>
        <mxCell id="SzPEY5MTMF_OYSWRjiUZ-149" value="" style="rounded=0;whiteSpace=wrap;html=1;fillColor=#dae8fc;strokeColor=#6c8ebf;" vertex="1" parent="SzPEY5MTMF_OYSWRjiUZ-148">
          <mxGeometry x="11.432" width="28.568" height="40" as="geometry" />
        </mxCell>
        <mxCell id="SzPEY5MTMF_OYSWRjiUZ-150" value="" style="rounded=1;whiteSpace=wrap;html=1;fillColor=#dae8fc;strokeColor=#6c8ebf;" vertex="1" parent="SzPEY5MTMF_OYSWRjiUZ-148">
          <mxGeometry y="6" width="22.85714285714286" height="10" as="geometry" />
        </mxCell>
        <mxCell id="SzPEY5MTMF_OYSWRjiUZ-151" value="" style="rounded=1;whiteSpace=wrap;html=1;fillColor=#dae8fc;strokeColor=#6c8ebf;" vertex="1" parent="SzPEY5MTMF_OYSWRjiUZ-148">
          <mxGeometry y="24" width="22.85714285714286" height="10" as="geometry" />
        </mxCell>
        <mxCell id="SzPEY5MTMF_OYSWRjiUZ-152" value="" style="group" vertex="1" connectable="0" parent="1">
          <mxGeometry x="263.75" y="484" width="40" height="40" as="geometry" />
        </mxCell>
        <mxCell id="SzPEY5MTMF_OYSWRjiUZ-153" value="" style="rounded=0;whiteSpace=wrap;html=1;fillColor=#dae8fc;strokeColor=#6c8ebf;" vertex="1" parent="SzPEY5MTMF_OYSWRjiUZ-152">
          <mxGeometry x="11.432" width="28.568" height="40" as="geometry" />
        </mxCell>
        <mxCell id="SzPEY5MTMF_OYSWRjiUZ-154" value="" style="rounded=1;whiteSpace=wrap;html=1;fillColor=#dae8fc;strokeColor=#6c8ebf;" vertex="1" parent="SzPEY5MTMF_OYSWRjiUZ-152">
          <mxGeometry y="6" width="22.85714285714286" height="10" as="geometry" />
        </mxCell>
        <mxCell id="SzPEY5MTMF_OYSWRjiUZ-155" value="" style="rounded=1;whiteSpace=wrap;html=1;fillColor=#dae8fc;strokeColor=#6c8ebf;" vertex="1" parent="SzPEY5MTMF_OYSWRjiUZ-152">
          <mxGeometry y="24" width="22.85714285714286" height="10" as="geometry" />
        </mxCell>
        <mxCell id="SzPEY5MTMF_OYSWRjiUZ-158" style="edgeStyle=orthogonalEdgeStyle;rounded=0;orthogonalLoop=1;jettySize=auto;html=1;entryX=0;entryY=0.5;entryDx=0;entryDy=0;endArrow=none;endFill=0;" edge="1" parent="1" source="SzPEY5MTMF_OYSWRjiUZ-157" target="SzPEY5MTMF_OYSWRjiUZ-156">
          <mxGeometry relative="1" as="geometry" />
        </mxCell>
        <mxCell id="SzPEY5MTMF_OYSWRjiUZ-157" value="" style="rounded=0;whiteSpace=wrap;html=1;fillColor=#dae8fc;strokeColor=#6c8ebf;" vertex="1" parent="1">
          <mxGeometry x="706" y="198" width="30" height="25" as="geometry" />
        </mxCell>
        <mxCell id="SzPEY5MTMF_OYSWRjiUZ-159" value="" style="rounded=0;whiteSpace=wrap;html=1;fillColor=#dae8fc;strokeColor=#6c8ebf;" vertex="1" parent="1">
          <mxGeometry x="592.5" y="399" width="30" height="25" as="geometry" />
        </mxCell>
        <mxCell id="SzPEY5MTMF_OYSWRjiUZ-164" value="" style="rounded=0;orthogonalLoop=1;jettySize=auto;html=1;endArrow=halfCircle;endFill=0;endSize=6;strokeWidth=1;sketch=0;exitX=1;exitY=0.5;exitDx=0;exitDy=0;" edge="1" target="SzPEY5MTMF_OYSWRjiUZ-166" parent="1" source="SzPEY5MTMF_OYSWRjiUZ-159">
          <mxGeometry relative="1" as="geometry">
            <mxPoint x="860" y="255" as="sourcePoint" />
          </mxGeometry>
        </mxCell>
        <mxCell id="SzPEY5MTMF_OYSWRjiUZ-165" value="" style="rounded=0;orthogonalLoop=1;jettySize=auto;html=1;endArrow=oval;endFill=0;sketch=0;sourcePerimeterSpacing=0;targetPerimeterSpacing=0;endSize=10;exitX=0;exitY=0.5;exitDx=0;exitDy=0;" edge="1" target="SzPEY5MTMF_OYSWRjiUZ-166" parent="1" source="SzPEY5MTMF_OYSWRjiUZ-157">
          <mxGeometry relative="1" as="geometry">
            <mxPoint x="820" y="255" as="sourcePoint" />
          </mxGeometry>
        </mxCell>
        <mxCell id="SzPEY5MTMF_OYSWRjiUZ-166" value="" style="ellipse;whiteSpace=wrap;html=1;align=center;aspect=fixed;fillColor=none;strokeColor=none;resizable=0;perimeter=centerPerimeter;rotatable=0;allowArrows=0;points=[];outlineConnect=1;" vertex="1" parent="1">
          <mxGeometry x="650" y="260" width="10" height="10" as="geometry" />
        </mxCell>
        <mxCell id="SzPEY5MTMF_OYSWRjiUZ-170" value="" style="rounded=0;orthogonalLoop=1;jettySize=auto;html=1;endArrow=halfCircle;endFill=0;endSize=6;strokeWidth=1;sketch=0;exitX=1;exitY=0.5;exitDx=0;exitDy=0;" edge="1" target="SzPEY5MTMF_OYSWRjiUZ-172" parent="1" source="SzPEY5MTMF_OYSWRjiUZ-123">
          <mxGeometry relative="1" as="geometry">
            <mxPoint x="370" y="395" as="sourcePoint" />
          </mxGeometry>
        </mxCell>
        <mxCell id="SzPEY5MTMF_OYSWRjiUZ-171" value="" style="rounded=0;orthogonalLoop=1;jettySize=auto;html=1;endArrow=oval;endFill=0;sketch=0;sourcePerimeterSpacing=0;targetPerimeterSpacing=0;endSize=10;exitX=0;exitY=0.5;exitDx=0;exitDy=0;" edge="1" target="SzPEY5MTMF_OYSWRjiUZ-172" parent="1" source="SzPEY5MTMF_OYSWRjiUZ-121">
          <mxGeometry relative="1" as="geometry">
            <mxPoint x="330" y="395" as="sourcePoint" />
          </mxGeometry>
        </mxCell>
        <mxCell id="SzPEY5MTMF_OYSWRjiUZ-172" value="" style="ellipse;whiteSpace=wrap;html=1;align=center;aspect=fixed;fillColor=none;strokeColor=none;resizable=0;perimeter=centerPerimeter;rotatable=0;allowArrows=0;points=[];outlineConnect=1;" vertex="1" parent="1">
          <mxGeometry x="362" y="412" width="10" height="10" as="geometry" />
        </mxCell>
        <mxCell id="SzPEY5MTMF_OYSWRjiUZ-173" value="" style="rounded=0;orthogonalLoop=1;jettySize=auto;html=1;endArrow=halfCircle;endFill=0;endSize=6;strokeWidth=1;sketch=0;exitX=0.5;exitY=1;exitDx=0;exitDy=0;" edge="1" target="SzPEY5MTMF_OYSWRjiUZ-175" parent="1" source="SzPEY5MTMF_OYSWRjiUZ-122">
          <mxGeometry relative="1" as="geometry">
            <mxPoint x="230" y="450" as="sourcePoint" />
          </mxGeometry>
        </mxCell>
        <mxCell id="SzPEY5MTMF_OYSWRjiUZ-174" value="" style="rounded=0;orthogonalLoop=1;jettySize=auto;html=1;endArrow=oval;endFill=0;sketch=0;sourcePerimeterSpacing=0;targetPerimeterSpacing=0;endSize=10;exitX=0.5;exitY=0;exitDx=0;exitDy=0;" edge="1" target="SzPEY5MTMF_OYSWRjiUZ-175" parent="1" source="SzPEY5MTMF_OYSWRjiUZ-123">
          <mxGeometry relative="1" as="geometry">
            <mxPoint x="190" y="450" as="sourcePoint" />
          </mxGeometry>
        </mxCell>
        <mxCell id="SzPEY5MTMF_OYSWRjiUZ-175" value="" style="ellipse;whiteSpace=wrap;html=1;align=center;aspect=fixed;fillColor=none;strokeColor=none;resizable=0;perimeter=centerPerimeter;rotatable=0;allowArrows=0;points=[];outlineConnect=1;" vertex="1" parent="1">
          <mxGeometry x="207.5" y="445" width="10" height="10" as="geometry" />
        </mxCell>
        <mxCell id="SzPEY5MTMF_OYSWRjiUZ-176" value="" style="rounded=0;orthogonalLoop=1;jettySize=auto;html=1;endArrow=halfCircle;endFill=0;endSize=6;strokeWidth=1;sketch=0;exitX=0.5;exitY=0;exitDx=0;exitDy=0;" edge="1" target="SzPEY5MTMF_OYSWRjiUZ-178" parent="1" source="SzPEY5MTMF_OYSWRjiUZ-121">
          <mxGeometry relative="1" as="geometry">
            <mxPoint x="440" y="296" as="sourcePoint" />
          </mxGeometry>
        </mxCell>
        <mxCell id="SzPEY5MTMF_OYSWRjiUZ-177" value="" style="rounded=0;orthogonalLoop=1;jettySize=auto;html=1;endArrow=oval;endFill=0;sketch=0;sourcePerimeterSpacing=0;targetPerimeterSpacing=0;endSize=10;exitX=0.5;exitY=1;exitDx=0;exitDy=0;" edge="1" target="SzPEY5MTMF_OYSWRjiUZ-178" parent="1" source="SzPEY5MTMF_OYSWRjiUZ-124">
          <mxGeometry relative="1" as="geometry">
            <mxPoint x="400" y="296" as="sourcePoint" />
          </mxGeometry>
        </mxCell>
        <mxCell id="SzPEY5MTMF_OYSWRjiUZ-178" value="" style="ellipse;whiteSpace=wrap;html=1;align=center;aspect=fixed;fillColor=none;strokeColor=none;resizable=0;perimeter=centerPerimeter;rotatable=0;allowArrows=0;points=[];outlineConnect=1;" vertex="1" parent="1">
          <mxGeometry x="507" y="285" width="10" height="10" as="geometry" />
        </mxCell>
        <mxCell id="SzPEY5MTMF_OYSWRjiUZ-179" value="" style="rounded=0;orthogonalLoop=1;jettySize=auto;html=1;endArrow=halfCircle;endFill=0;endSize=6;strokeWidth=1;sketch=0;exitX=0.5;exitY=0;exitDx=0;exitDy=0;" edge="1" target="SzPEY5MTMF_OYSWRjiUZ-181" parent="1" source="SzPEY5MTMF_OYSWRjiUZ-122">
          <mxGeometry relative="1" as="geometry">
            <mxPoint x="233" y="255" as="sourcePoint" />
          </mxGeometry>
        </mxCell>
        <mxCell id="SzPEY5MTMF_OYSWRjiUZ-180" value="" style="rounded=0;orthogonalLoop=1;jettySize=auto;html=1;endArrow=oval;endFill=0;sketch=0;sourcePerimeterSpacing=0;targetPerimeterSpacing=0;endSize=10;exitX=0.5;exitY=1;exitDx=0;exitDy=0;" edge="1" target="SzPEY5MTMF_OYSWRjiUZ-181" parent="1" source="SzPEY5MTMF_OYSWRjiUZ-125">
          <mxGeometry relative="1" as="geometry">
            <mxPoint x="193" y="255" as="sourcePoint" />
          </mxGeometry>
        </mxCell>
        <mxCell id="SzPEY5MTMF_OYSWRjiUZ-181" value="" style="ellipse;whiteSpace=wrap;html=1;align=center;aspect=fixed;fillColor=none;strokeColor=none;resizable=0;perimeter=centerPerimeter;rotatable=0;allowArrows=0;points=[];outlineConnect=1;" vertex="1" parent="1">
          <mxGeometry x="208" y="250" width="10" height="10" as="geometry" />
        </mxCell>
      </root>
    </mxGraphModel>
  </diagram>
</mxfile>
